<svg xmlns="http://www.w3.org/2000/svg" xmlns:xlink="http://www.w3.org/1999/xlink" version="1.1" x="0px" y="0px" viewBox="0 0 100 125" enable-background="new 0 0 100 100" xml:space="preserve"><g><path fill="rgb(12, 156, 156)" d="M75.831,81.262c-0.461,4.555-4.121,7.827-8.179,7.309l-34.53-4.418c-4.055-0.521-6.968-4.632-6.507-9.187   l6.035-59.515c0.464-4.555,4.123-7.826,8.182-7.307l34.529,4.417c4.057,0.52,6.969,4.632,6.506,9.187L75.831,81.262z"/><path fill="#FFFFFF" d="M28.725,87.08c-4.055-0.519-6.969-4.632-6.508-9.187l6.036-59.514c0.108-1.073,0.401-2.072,0.829-2.969   h-3.607c-4.083,0-7.391,3.716-7.391,8.301v59.896c0,4.586,3.308,8.302,7.391,8.302h34.754c0.866,0,1.693-0.177,2.467-0.484   L28.725,87.08z"/></g></svg>